<svg aria-hidden="true" style="position:absolute;width:0;height:0" xmlns="http://www.w3.org/2000/svg" overflow="hidden">
    <defs>
        <symbol id="webstudiowhite" viewBox="0 0 232 32">
            <path fill="var(--color1, #2196f3)" d="M13.27.947h5.283l3.328 9.776L25.209.947h5.325L25.5 14.384l3.744 9.443L37.606.864h6.24L31.824 30.4h-4.826l-5.117-12.397L16.764 30.4h-4.826L-.001.864h6.157l8.403 22.963 3.661-9.443L13.27.947zm41.736 29.869c-1.747 0-3.328-.291-4.742-.874a11.194 11.194 0 01-3.618-2.453l-.001-.001a11.103 11.103 0 01-2.303-3.504l-.027-.074a11.548 11.548 0 01-.791-4.237v-.051.003c0-1.552.264-3.008.79-4.368a10.501 10.501 0 012.291-3.622l-.002.003a10.85 10.85 0 013.549-2.469l.07-.027c1.443-.61 3.051-.915 4.826-.915 1.776 0 3.357.304 4.742.915 1.414.61 2.608 1.429 3.578 2.454a10.038 10.038 0 012.224 3.508l.023.069c.528 1.36.79 2.773.79 4.243 0 .36-.013.707-.042 1.04 0 .333-.027.61-.083.832H49.432c.083.859.291 1.622.624 2.288a5.65 5.65 0 003.04 2.774l.039.013c.666.25 1.36.374 2.08.374 1.11 0 2.15-.264 3.12-.79.998-.555 1.678-1.275 2.038-2.163l4.784 1.331c-.803 1.664-2.093 3.037-3.869 4.118-1.747 1.054-3.84 1.581-6.282 1.581zm5.658-13.146c-.138-1.637-.749-2.939-1.83-3.91-1.053-.998-2.342-1.498-3.869-1.498a5.47 5.47 0 00-2.122.416 5.278 5.278 0 00-1.708 1.084l.002-.002a6.037 6.037 0 00-1.248 1.706 6.319 6.319 0 00-.541 2.205h11.315zm22.782 13.146c-1.664 0-3.149-.374-4.451-1.123a8.262 8.262 0 01-3.057-3.039l-.021-.04V30.4H71.05V.032h5.574v12.397c.776-1.331 1.789-2.357 3.037-3.078 1.275-.749 2.758-1.123 4.451-1.123 1.414 0 2.704.304 3.869.915a9.551 9.551 0 012.981 2.437l.014.018a10.545 10.545 0 011.935 3.544l.021.075c.47 1.387.707 2.843.707 4.368 0 1.581-.264 3.051-.79 4.41a11.071 11.071 0 01-2.131 3.589l.01-.011a10.273 10.273 0 01-3.183 2.345l-.062.026a9.278 9.278 0 01-3.963.874h-.076.004zm-1.539-4.742c.886 0 1.706-.166 2.454-.499.749-.36 1.386-.832 1.914-1.414s.928-1.262 1.206-2.038c.304-.776.458-1.608.458-2.496s-.139-1.733-.416-2.538a6.42 6.42 0 00-1.213-2.13l.007.008a5.708 5.708 0 00-1.758-1.441l-.031-.015a4.82 4.82 0 00-2.235-.541h-.056.003c-1.248 0-2.371.416-3.37 1.248a8.095 8.095 0 00-2.226 2.944l-.02.051v5.2c.194.555.47 1.054.832 1.498.387.443.818.832 1.29 1.165a7.2 7.2 0 001.539.749 5.506 5.506 0 001.62.25h.002z"/>
            <path fill="var(--color2, #fff)" d="M116.8 8.602c-.194-.194-.554-.458-1.082-.79a10.335 10.335 0 00-1.8-.931l-.072-.025a13.303 13.303 0 00-2.274-.811l-.097-.021a10.216 10.216 0 00-2.616-.333h-.005c-1.581 0-2.758.291-3.536.874-.776.582-1.165 1.4-1.165 2.454 0 .61.139 1.123.416 1.539.304.389.736.736 1.29 1.04.555.304 1.248.582 2.08.832.861.25 1.845.512 2.954.79 1.616.428 2.918.854 4.19 1.342l-.28-.094c1.194.443 2.192.998 2.995 1.664a6.73 6.73 0 011.914 2.413c.445.915.666 2.053.666 3.411 0 1.581-.304 2.939-.915 4.077a7.379 7.379 0 01-2.387 2.688l-.025.016c-.998.693-2.163 1.206-3.494 1.539a18.064 18.064 0 01-4.118.458c-2.218 0-4.41-.333-6.573-.998a20.3 20.3 0 01-5.887-2.871l.063.042 2.538-4.95c.25.25.694.582 1.331.998.666.389 1.443.79 2.33 1.206.888.389 1.872.72 2.954.998a13.37 13.37 0 003.328.416c3.162 0 4.742-1.013 4.742-3.037 0-.638-.179-1.179-.541-1.622-.36-.443-.874-.832-1.539-1.165a14.003 14.003 0 00-2.309-.889l-.104-.026c-.944-.277-1.997-.582-3.162-.915a29.816 29.816 0 01-3.902-1.322l.199.074c-1.026-.472-1.885-1.013-2.579-1.622a6.628 6.628 0 01-1.564-2.122l-.017-.041c-.333-.832-.499-1.816-.499-2.954 0-1.498.278-2.829.832-3.994a8.238 8.238 0 012.272-2.9l.016-.012c.98-.76 2.131-1.358 3.379-1.728l.074-.019a13.457 13.457 0 014.096-.624h.112-.006c2.08 0 3.994.333 5.741.998 1.747.638 3.274 1.4 4.576 2.288l-2.538 4.659zm21.442 20.675c-.749.333-1.664.666-2.746.998-1.004.317-2.16.499-3.357.499h-.057.003-.046a8.14 8.14 0 01-2.216-.305l.057.014a5.232 5.232 0 01-1.8-.923l.011.008a4.973 4.973 0 01-1.194-1.633l-.013-.031c-.304-.693-.458-1.525-.458-2.496V12.886h-2.87V8.601h2.87V1.529H132v7.072h4.576v4.285H132v10.65c0 .776.195 1.331.582 1.664.416.304.915.458 1.498.458s1.152-.096 1.706-.291c.555-.194.998-.36 1.331-.499l1.123 4.41zm10.808 1.539c-2.246 0-3.952-.72-5.117-2.163-1.165-1.442-1.747-3.578-1.747-6.406V8.602h5.574V21.04c0 3.355 1.206 5.034 3.619 5.034 1.082 0 2.122-.32 3.12-.957 1.026-.666 1.858-1.664 2.496-2.995V8.602h5.574v15.392c0 .582.096.998.291 1.248.221.25.568.389 1.04.416V30.4c-.722.159-1.551.25-2.402.25h-.012.001c-.998 0-1.818-.222-2.454-.666-.611-.472-.971-1.109-1.082-1.914l-.125-1.747c-.971 1.498-2.219 2.621-3.744 3.37-1.526.749-3.203 1.123-5.034 1.123zm29.334 0h-.094a9.87 9.87 0 01-4.128-.899l.062.025a9.882 9.882 0 01-3.278-2.403l-.008-.009a11.628 11.628 0 01-2.136-3.498l-.027-.079a12.783 12.783 0 01-.749-4.357v-.1.005c0-1.581.235-3.051.707-4.41.5-1.374 1.191-2.56 2.054-3.597l-.016.019a9.37 9.37 0 013.024-2.389l.054-.024a8.67 8.67 0 013.915-.873h-.005c1.608 0 3.051.389 4.326 1.165a8.451 8.451 0 013.015 2.998l.021.039V.032h5.574v23.962c0 .582.098.998.291 1.248s.526.389.998.416V30.4c-.971.194-1.762.291-2.371.291-.998 0-1.816-.25-2.454-.749a2.748 2.748 0 01-1.081-1.945l-.001-.011-.125-1.373a8.075 8.075 0 01-3.243 3.141l-.044.021a9.185 9.185 0 01-4.274 1.04h-.011.001zm1.456-4.742c.526 0 1.067-.083 1.622-.25a6.246 6.246 0 002.778-1.944l.009-.011c.389-.443.68-.928.874-1.456v-5.2a5.547 5.547 0 00-.964-1.673l.007.009a5.76 5.76 0 00-1.354-1.319l-.019-.012a6.229 6.229 0 00-1.58-.901l-.043-.015a4.39 4.39 0 00-1.663-.333h-.001c-.832 0-1.608.181-2.33.541a5.508 5.508 0 00-1.78 1.485l-.009.012a6.773 6.773 0 00-1.15 2.074l-.014.048a7.46 7.46 0 00-.416 2.483v.014-.001c0 .915.152 1.76.458 2.538.306.776.722 1.456 1.248 2.038s1.15 1.04 1.872 1.373a5.969 5.969 0 002.454.499zm17.578 4.326V8.602h5.574V30.4h-5.574zm0-24.835V.032h5.574v5.533h-5.574zm21.918 25.251c-1.776 0-3.37-.304-4.784-.915a11.194 11.194 0 01-3.618-2.453l-.001-.001a11.32 11.32 0 01-2.22-3.542l-.027-.077c-.5-1.255-.791-2.71-.791-4.232v-.055V19.472c0-1.53.29-2.992.818-4.334l-.028.08a10.898 10.898 0 012.251-3.583l-.005.005a10.85 10.85 0 013.549-2.469l.07-.027c1.414-.61 3.008-.915 4.784-.915 1.774 0 3.355.304 4.742.915a10.44 10.44 0 013.572 2.49l.006.006c.97.996 1.746 2.186 2.263 3.506l.025.072c.526 1.36.79 2.8.79 4.326v.046c0 1.525-.29 2.982-.818 4.319l.028-.08a11.435 11.435 0 01-2.254 3.627l.007-.008c-.971 1.026-2.163 1.845-3.578 2.454s-3.01.915-4.784.915zm-5.699-11.274c0 .971.138 1.858.416 2.662a7.058 7.058 0 001.206 2.038 5.872 5.872 0 001.83 1.373 5.531 5.531 0 002.246.458c.803 0 1.552-.152 2.246-.458a5.45 5.45 0 001.783-1.366l.006-.007a5.962 5.962 0 001.206-2.08c.304-.805.458-1.691.458-2.662 0-.944-.154-1.816-.458-2.621a5.992 5.992 0 00-1.211-2.086l.005.006a5.002 5.002 0 00-1.757-1.319l-.031-.013a5.057 5.057 0 00-2.208-.499h-.041.002-.041c-.802 0-1.56.184-2.236.513l.03-.013a5.906 5.906 0 00-1.826 1.367l-.005.005a6.903 6.903 0 00-1.191 2.032l-.016.048a7.802 7.802 0 00-.416 2.541v.084-.004z"/>
        </symbol>
        <symbol id="Client6" viewBox="0 0 60 32">
            <path d="M30.485 15.414a1.152 1.152 0 01-.202-.735v.003-1.061c0-.325.068-.572.202-.741s.366-.253.693-.252c.308 0 .526.072.655.216a.936.936 0 01.194.634v.249h-.55v-.252-.033c0-.076-.006-.15-.017-.222l.001.008a.246.246 0 00-.078-.147.297.297 0 00-.176-.058l-.024.001h.001l-.023-.001a.316.316 0 00-.188.062l.001-.001a.287.287 0 00-.091.16v.002a1.35 1.35 0 00-.022.262v1.287a.71.71 0 00.072.365l-.002-.004a.266.266 0 00.109.087l.002.001a.276.276 0 00.143.021h-.001a.277.277 0 00.196-.059h-.001a.264.264 0 00.082-.155v-.001c.013-.085.019-.172.017-.258v-.261h.55v.238l.002.065c0 .226-.072.435-.195.605l.002-.003c-.126.158-.342.236-.659.236s-.556-.084-.692-.259zm2.292.011c-.139-.165-.209-.406-.209-.724v-1.116c0-.315.07-.553.209-.715s.371-.242.697-.242c.324 0 .555.081.694.242s.21.4.21.715v1.116c0 .315-.071.556-.212.723s-.372.249-.692.249c-.32 0-.557-.084-.697-.248zm.954-.267a.663.663 0 00.066-.33v-1.366l.001-.037a.649.649 0 00-.068-.291l.002.004a.253.253 0 00-.111-.088l-.002-.001a.269.269 0 00-.146-.018h.001c-.011-.002-.024-.002-.037-.002a.288.288 0 00-.11.022l.002-.001a.264.264 0 00-.112.088l-.001.001a.639.639 0 00-.066.324v1.372a.661.661 0 00.066.33c.032.034.07.062.114.081l.002.001a.36.36 0 00.286-.001l-.002.001a.344.344 0 00.116-.082v-.006zm1.309-2.497h.593l.446 2.059.456-2.059h.577l.058 2.971h-.426l-.045-2.065-.44 2.065h-.342l-.456-2.072-.042 2.072h-.431l.053-2.971zm2.793 0h.923c.532 0 .797.281.797.844 0 .539-.28.807-.84.807h-.314v1.32h-.57l.004-2.971zm.789 1.27a.41.41 0 00.313-.094.518.518 0 00.082-.335l.001-.032c0-.084-.01-.166-.029-.245l.001.007a.228.228 0 00-.042-.082.251.251 0 00-.071-.059l-.001-.001a.54.54 0 00-.223-.048l-.032.001h.001-.221v.887h.221zm1.753-1.27h.612l.628 2.971h-.531l-.124-.685h-.546l-.128.685h-.539l.628-2.971zm.523 1.942l-.213-1.247-.213 1.247h.426zm1.224-1.942h.399l.763 1.695v-1.695h.473v2.971h-.379l-.768-1.769v1.769h-.489l.001-2.971zm2.743 1.839l-.635-1.834h.534l.388 1.178.363-1.178h.523l-.627 1.834v1.133h-.547V14.5zm-13.5 2.431v.155H30.9v1.207h-.195v-1.207h-.467v-.155h1.127zm1.458 1.363h-.154a.062.062 0 01-.038-.013.07.07 0 01-.025-.031l-.135-.324h-.645l-.135.324a.102.102 0 01-.02.037.065.065 0 01-.039.013h-.154l.57-1.362h.198l.577 1.357zm-.944-.506h.538l-.228-.555a1.064 1.064 0 01-.041-.121l-.002-.007-.021.072-.021.057-.226.554zm1.926.372a.955.955 0 00.107 0 .693.693 0 00.177-.042l-.004.002.077-.033v-.306h-.231a.04.04 0 01-.028-.011.03.03 0 01-.011-.023v-.106h.442v.522a.803.803 0 01-.235.109l-.006.001a.84.84 0 01-.138.028h-.005a1.638 1.638 0 01-.164.009h-.008a.798.798 0 01-.286-.053l.005.002a.664.664 0 01-.374-.355l-.002-.004a.73.73 0 01-.053-.274v-.009-.008a.78.78 0 01.053-.282l-.002.005a.633.633 0 01.375-.358.876.876 0 01.305-.051c.053 0 .106.004.158.012a.715.715 0 01.35.16l-.055.084a.052.052 0 01-.018.018.053.053 0 01-.026.007.066.066 0 01-.036-.011c-.022-.012-.041-.022-.058-.034l.003.002a.496.496 0 00-.073-.036l-.003-.001a.525.525 0 00-.101-.029l-.004-.001a.735.735 0 00-.137-.012h-.015a.623.623 0 00-.217.039l.004-.001a.459.459 0 00-.273.278.688.688 0 00.002.459l-.002-.005a.493.493 0 00.28.28.595.595 0 00.226.027zm1.816-.022h.622v.155h-.812V16.93h.195l-.005 1.207zm1.27.155h-.195v-1.362h.195v1.363zm.725-1.355a.088.088 0 01.029.025l.833 1.027-.001-.024.001-.026v.001-1.015h.17v1.368H38.543a.086.086 0 01-.036-.008h.001a.108.108 0 01-.03-.026l-.832-1.026v1.059h-.163v-1.362h.101c.011 0 .022.002.032.006zm2.467-.007v.15h-.691v.45h.56v.144h-.56v.465h.691v.15h-.891v-1.359h.891zm-20.42-8.414l8.652 2.326v8.15l-8.652-2.324V8.518zm-.554-.695v9.242l9.761 2.625v-9.241l-9.761-2.625z"/>
            <path d="M24.34 23.979l-9.762-2.627v-9.241l9.762 2.626v9.242z"/>
            <path d="M19.27 8.412l8.54 2.297-3.632 3.439-8.54-2.298 3.633-3.438zm-.161-.59l-4.531 4.289 9.762 2.626 4.529-4.289-9.761-2.626zm5.78 15.637l3.98-3.769-3.98-1.071v4.84z"/>
        </symbol>
        <symbol id="Client5" viewBox="0 0 60 32">
            <path d="M21.507 21.788a.557.557 0 01.123.359l.001.028a.571.571 0 01-.191.426h-.001a.825.825 0 01-.554.166h-.974V20.49h.954a.805.805 0 01.531.153l-.002-.002a.52.52 0 01.186.398l-.001.029v-.001a.528.528 0 01-.111.348.52.52 0 01-.291.178.55.55 0 01.329.195zm-1.143-.344h.408a.383.383 0 00.259-.076.272.272 0 00.088-.2l-.001-.024v.001l.001-.019a.278.278 0 00-.087-.203.39.39 0 00-.235-.078l-.033.001h.001-.401v.597zm.707.873a.28.28 0 00.097-.213l-.001-.019v-.016a.285.285 0 00-.099-.217.415.415 0 00-.25-.083l-.028.001h.001-.427v.626h.433a.428.428 0 00.274-.079zm2.386.45l-.53-.89h-.199v.89h-.457V20.49h.864l.059-.002c.207 0 .397.074.544.197l-.001-.001a.727.727 0 01.062.944l.001-.002a.699.699 0 01-.412.231l.565.91h-.497zm-.73-1.201h.373c.26 0 .389-.115.389-.345l.001-.019a.343.343 0 00-.096-.237.405.405 0 00-.259-.094l-.036.002h.002-.378l.005.693zm3.225.742h-.91l-.161.459h-.479l.836-2.252h.517l.832 2.252h-.479l-.157-.458zm-.122-.345l-.332-.961-.332.961h.665zm3.246.804h-.454l-1.016-1.548v1.548h-.452V20.49h.452l1.016 1.557V20.49h.453v2.277zm2.586-.546a.985.985 0 01-.405.399l-.005.003c-.197.1-.416.149-.637.143h-.807v-2.277H30.65c.219 0 .427.052.61.144l-.008-.004a.958.958 0 01.41.397 1.327 1.327 0 01-.003 1.202l.003-.008zm-.519-.054a.834.834 0 00-.001-1.088l.001.001a.783.783 0 00-.569-.193h.002-.315v1.474h.315a.781.781 0 00.568-.194l-.001.001zM26.236 7.822s5.85 2.217 5.726 5.426v5.427s-5.845-2.219-5.723-5.427l-.003-5.426zm10.937 9.582a7.908 7.908 0 013.681-1.372l.035-.003V14.33a7.684 7.684 0 00-3.698 3.043l-.019.031z"/>
            <path d="M36.509 17.916a8.009 8.009 0 014.325-3.924l.055-.018V9.079s-8.331 3.158-8.154 7.727v7.727s.371-.141.955-.406a8.033 8.033 0 012.808-6.202l.011-.009z"/>
            <path d="M35.717 20.787a8.016 8.016 0 01.291-1.582 7.446 7.446 0 00-1.764 4.659v.008a23.09 23.09 0 001.716-.909l-.114.062a7.775 7.775 0 01-.157-1.577c0-.232.01-.462.029-.69l-.002.03zm.331.027a7.76 7.76 0 00.11 2.074l-.008-.048c2.276-1.367 4.833-3.48 4.735-6.033v-.223a7.452 7.452 0 00-4.333 2.034l.002-.002a7.448 7.448 0 00-.506 2.171l-.002.027z"/>
        </symbol>
        <symbol id="Client4" viewBox="0 0 60 32">
            <path  d="M20.41 13.095h-.001c-.804 0-1.456.636-1.456 1.419v.001c0 .784.652 1.419 1.456 1.419h.001c.804 0 1.456-.636 1.456-1.419v-.001c0-.784-.652-1.419-1.456-1.419zm10.75-.454c-.003-1.089-.447-2.132-1.237-2.902a4.277 4.277 0 00-5.956-.001 4.063 4.063 0 00-1.237 2.903v6.004s8.43-.915 8.431-6.003v-.001zM16 20.616c.004.793.333 1.507.86 2.019l.001.001a2.975 2.975 0 004.144 0l-.001.001a2.823 2.823 0 00.861-2.018V16.44s-5.866.638-5.866 4.177zm2.933.748h-.002a.775.775 0 01-.428-.128l.003.002a.759.759 0 01-.281-.331l-.002-.005a.716.716 0 01-.042-.437l-.001.005a.745.745 0 01.21-.383.776.776 0 01.388-.204l.005-.001a.784.784 0 01.789.319.728.728 0 01.069.708l.002-.005a.75.75 0 01-.415.407.774.774 0 01-.294.057v-.003zm5.988-.464h-.6v.62h-.313v-1.516h.988v.253h-.675v.391h.6v.252zm1.502-.104c0 .149-.026.28-.079.393s-.128.199-.227.26a.615.615 0 01-.326.092h-.012.001a.607.607 0 01-.564-.345l-.002-.004a.877.877 0 01-.082-.374v-.014.001-.075a.92.92 0 01.08-.394.602.602 0 01.566-.353.607.607 0 01.564.353.902.902 0 01.081.393v.068zm-.317-.069c0-.159-.029-.28-.086-.363a.28.28 0 00-.232-.124h-.013.001-.012a.279.279 0 00-.23.122l-.001.001c-.057.081-.086.201-.086.358v.074c0 .155.028.275.085.361s.139.128.246.128h.012a.276.276 0 00.229-.122l.001-.001c.056-.083.085-.203.085-.361v-.074zm1.33.395v-.009a.158.158 0 00-.062-.126.815.815 0 00-.225-.1 1.586 1.586 0 01-.266-.108l.009.004c-.172-.093-.259-.218-.259-.376 0-.082.023-.155.069-.219s.113-.115.199-.151c.087-.036.184-.054.292-.054s.205.02.289.059a.436.436 0 01.268.41h-.313a.203.203 0 00-.065-.161.269.269 0 00-.185-.059.283.283 0 00-.178.049.152.152 0 00-.064.124v.004c0 .049.025.09.074.124.05.033.123.065.22.094.178.053.307.12.388.199s.122.178.122.295c0 .132-.05.235-.149.309s-.233.112-.401.112a.77.77 0 01-.319-.064.523.523 0 01-.219-.174l-.001-.002a.448.448 0 01-.075-.249v-.009h.314c0 .167.1.251.3.251a.293.293 0 00.174-.045.147.147 0 00.062-.121v-.007zm1.668-.866h-.464v1.263h-.313v-1.263h-.458v-.253h1.236v.253zm1.092.607h-.6v.406h.704v.251h-1.017v-1.516h1.015v.253h-.702v.361h.6v.245zm.849.102h-.249v.555h-.313v-1.516h.564c.179 0 .317.04.415.12s.146.193.146.338c0 .103-.023.19-.068.26a.455.455 0 01-.2.163l-.003.001.328.62v.015h-.336l-.284-.555zm-.249-.254h.252c.078 0 .139-.02.182-.059a.215.215 0 00.065-.154v-.012.001c0-.071-.021-.128-.061-.169s-.102-.061-.186-.061h-.251v.455zm1.893.274v.534h-.313v-1.516h.592c.114 0 .214.021.3.063a.469.469 0 01.27.44c0 .149-.051.266-.153.352s-.242.128-.422.128h-.274zm0-.253h.279c.083 0 .145-.02.188-.059s.066-.094.066-.166v-.011a.252.252 0 00-.066-.17.247.247 0 00-.181-.071h-.286v.476zm1.977.131h-.6v.406h.704v.251h-1.017v-1.516h1.015v.253h-.702v.361h.6v.245zm1.45-.607h-.464v1.263h-.313v-1.263h-.458v-.253h1.235v.253zm1.092.607h-.6v.406h.704v.251h-1.017v-1.516h1.015v.253h-.702v.361h.6v.245zm.849.102h-.249v.555h-.313v-1.516h.564c.179 0 .318.04.415.12s.146.193.146.338c0 .103-.022.19-.068.26a.455.455 0 01-.2.163l-.003.001.328.62v.015h-.336l-.284-.555zm-.249-.254h.252c.079 0 .139-.02.182-.059s.064-.096.064-.166c0-.071-.02-.128-.061-.169s-.102-.061-.187-.061h-.251v.455zm1.836.411v-.009a.161.161 0 00-.062-.126.815.815 0 00-.225-.1 1.633 1.633 0 01-.267-.108l.009.004c-.172-.093-.258-.218-.258-.376 0-.082.023-.155.069-.219s.113-.115.199-.151a.744.744 0 01.281-.054h.012-.001c.108 0 .205.02.289.059s.15.094.197.166a.434.434 0 01.071.244h-.313a.203.203 0 00-.065-.161.269.269 0 00-.185-.059.283.283 0 00-.178.049.152.152 0 00-.064.123v.004c0 .049.025.09.074.124.05.033.123.065.22.094.178.053.307.12.388.199s.122.178.122.295c0 .132-.05.235-.149.309s-.233.112-.401.112h-.01a.757.757 0 01-.313-.066l.005.002a.517.517 0 01-.219-.174l-.001-.002a.446.446 0 01-.075-.249v-.009h.313c0 .167.1.251.3.251a.295.295 0 00.174-.045.148.148 0 00.063-.121v-.006z"/>
        </symbol>
        <symbol id="Client3" viewBox="0 0 60 32">
            <path d="M25.367 23.394a.04.04 0 01.028.012l.073.077a.588.588 0 01-.206.145.727.727 0 01-.292.052h-.015a.71.71 0 01-.265-.051l.005.002a.598.598 0 01-.339-.346l-.001-.004a.764.764 0 01-.046-.263v-.01V22.998c0-.095.018-.185.052-.267l-.002.005a.628.628 0 01.361-.351.797.797 0 01.282-.049.713.713 0 01.263.044c.072.03.139.071.196.123l-.061.082a.054.054 0 01-.015.015.041.041 0 01-.022.007h-.003a.062.062 0 01-.027-.009l-.033-.022-.046-.028a.489.489 0 00-.141-.048h-.003a.62.62 0 00-.1-.009h-.016a.526.526 0 00-.199.038l.004-.001a.455.455 0 00-.262.267.596.596 0 00-.038.216.614.614 0 00.038.22c.022.06.057.116.101.163a.414.414 0 00.152.101c.06.024.124.036.188.035a.842.842 0 00.112-.007.42.42 0 00.242-.112.052.052 0 01.034-.014zm2.113-.386a.739.739 0 01-.049.271.624.624 0 01-.35.347l-.004.001a.799.799 0 01-.562-.002l.006.002a.617.617 0 01-.352-.347l-.001-.004a.764.764 0 01.002-.548l-.002.005a.623.623 0 01.139-.213.633.633 0 01.211-.132l.004-.001a.799.799 0 01.562.002l-.006-.002a.617.617 0 01.354.349.73.73 0 01.05.273zm-.192 0v-.011a.63.63 0 00-.036-.21l.001.004a.434.434 0 00-.25-.265L27 22.525a.571.571 0 00-.408.001l.004-.001a.429.429 0 00-.252.263l-.001.003a.706.706 0 000 .436.43.43 0 00.25.264l.003.001a.596.596 0 00.404 0 .415.415 0 00.253-.265.623.623 0 00.035-.218zm1.633.229l.02.049a2.405 2.405 0 01.046-.099l-.001.002.467-.809c.009-.014.018-.023.027-.025s.02-.004.032-.004H29.657v1.316h-.164v-1.008l-.001-.023.001-.024v.001l-.47.821a.074.074 0 01-.066.041h-.027a.078.078 0 01-.068-.04l-.484-.826v1.057h-.158v-1.314H28.365c.011 0 .022.002.032.005h-.001a.05.05 0 01.025.025l.477.81a.212.212 0 01.023.045l.001.002zm1.759-.065v.493h-.183v-1.314h.424c.075 0 .148.01.218.03l-.006-.001a.44.44 0 01.161.082.33.33 0 01.091.129.443.443 0 01-.003.336.367.367 0 01-.098.131h-.001a.463.463 0 01-.159.086l-.003.001a.714.714 0 01-.22.031l-.221-.004zm0-.142h.221a.456.456 0 00.142-.02.3.3 0 00.102-.057.228.228 0 00.062-.085l.001-.002a.27.27 0 00.022-.108v-.004-.013a.248.248 0 00-.019-.095l.001.002a.255.255 0 00-.064-.09.363.363 0 00-.218-.072l-.029.001h.001-.221v.542zm2.458.636h-.147a.071.071 0 01-.038-.012.076.076 0 01-.023-.03l-.124-.318h-.625l-.129.318a.066.066 0 01-.023.029.065.065 0 01-.039.013h-.146l.549-1.317h.19l.556 1.317zm-.905-.489h.516l-.218-.536a.8.8 0 01-.04-.117l-.001-.006-.021.069a.452.452 0 01-.022.06l.002-.004-.216.535zm1.695-.821a.081.081 0 01.028.024l.8.992V22.35h.164v1.317h-.093a.078.078 0 01-.035-.008h.001a.113.113 0 01-.029-.024l-.799-.991a.338.338 0 010 .045v.979h-.164v-1.317h.097c.011 0 .022.002.033.006zm2.34.786v.523h-.183v-.523l-.506-.793h.168c.013 0 .026.004.036.012.01.008.018.018.025.029v.001l.316.511a.765.765 0 01.056.116l.024-.057a.425.425 0 01.031-.06l.312-.515a.131.131 0 01.024-.028.057.057 0 01.036-.013h.169l-.507.796zm-7.437-3.002c.08.01.16.018.242.025 1.234-.526 2.278-1.387 3.001-2.475s1.094-2.355 1.066-3.643l-1.36-1.296c.09.427.142.918.142 1.421a7.17 7.17 0 01-.532 2.72l.017-.048a7.573 7.573 0 01-2.575 3.296z"/>
            <path d="M28.345 20.08l.037.007a7.32 7.32 0 002.719-3.394c.3-.747.473-1.614.473-2.521 0-.619-.081-1.22-.233-1.791l.011.049-1.937-1.845a8.455 8.455 0 01.962 3.944c0 .335-.019.666-.057.991l.004-.04a8.707 8.707 0 01-1.979 4.6zm6.569-4.512a6.683 6.683 0 01-2.279 3.639 7.265 7.265 0 01-1.047.722l-.036.019a6.479 6.479 0 002.525-1.362l-.008.006a6.096 6.096 0 001.615-2.235l.015-.04-.786-.748z"/>
            <path d="M34.606 15.36l-1.119-1.066a6.534 6.534 0 01-1.065 3.463l.015-.025a7.002 7.002 0 01-2.737 2.454h.006c.251 0 .501-.014.751-.043a6.916 6.916 0 002.699-1.887l.007-.008a6.403 6.403 0 001.436-2.847l.008-.043zm-6.099-5.554l-1.334-1.273c-1.193.439-2.219 1.211-2.943 2.215s-1.115 2.193-1.118 3.411c.005 1.347.48 2.652 1.351 3.712s2.089 1.812 3.46 2.139c1.224-1.42 1.94-3.176 2.046-5.011s-.407-3.654-1.461-5.193zm9.182 5.358c-.005-1.597-.673-3.128-1.858-4.257s-2.792-1.766-4.468-1.771a6.51 6.51 0 00-2.265.402l8.17 7.783a5.623 5.623 0 00.422-2.157z"/>
        </symbol>
        <symbol id="Client2" viewBox="0 0 60 32">
            <path d="M29.147 7.799h.049c.09 0 .187.009.283.017.424.03.845.093 1.259.19V6.988a7.522 7.522 0 00-1.3-.207 8.957 8.957 0 00-.513-.025h-.164c-.88.004-1.756.116-2.609.336-.971.242-1.902.621-2.767 1.126v10.097a10.96 10.96 0 012.56-1.011l.078-.017a11.144 11.144 0 012.184-.339l.03-.001h.03c.125-.006.25-.01.379-.011v-1.035a12.208 12.208 0 00-2.963.402l.085-.019c-.348.091-.684.188-1 .297l-.36.122V8.83l.154-.074a9.86 9.86 0 013.712-.953l.027-.001.016-.001.017.001h-.001c.143-.007.287-.011.428-.011h.162c.075.002.149.004.224.008z"/>
            <path d="M31.684 8.865h-.009a9.214 9.214 0 01-1.551-.13l.054.008a8.34 8.34 0 01-.526-.106l.056.011v9.981c.647.16 1.312.238 1.979.233a10.672 10.672 0 002.683-.352l-.074.017a10.547 10.547 0 002.818-1.153l-.049.027V7.485c-.758.421-1.635.773-2.559 1.011l-.078.017c-.896.23-1.817.348-2.742.352zm3.991.172l.36-.121v7.875l-.154.074a9.429 9.429 0 01-1.771.646l-.069.015a9.584 9.584 0 01-2.354.305c-.238 0-.473-.01-.701-.03l-.246-.022V9.68l.287.019c.19.013.411.02.634.02h.026-.001a12.2 12.2 0 003.074-.402l-.085.019c.336-.089.669-.188 1-.299zM24.084 21.764a.53.53 0 00-.382-.162h-.02.001-.008a.593.593 0 00-.227.045l.004-.001a.524.524 0 00-.295.296l-.001.004a.588.588 0 00-.041.223v1.349a.63.63 0 00.053.277.482.482 0 00.32.277.77.77 0 00.202.028.568.568 0 00.559-.568v-.151h-.353v.127a.314.314 0 01-.022.115l.001-.002a.212.212 0 01-.051.076.25.25 0 01-.147.052l-.021.001a.178.178 0 01-.144-.073.313.313 0 01-.047-.167v-.014.001-1.258a.44.44 0 01.043-.202.181.181 0 01.174-.082h-.001.007c.062 0 .116.03.15.076a.283.283 0 01.059.174V22.329h.349v-.138-.006a.625.625 0 00-.045-.234l.002.004a.565.565 0 00-.118-.19zm2.095-.015a.628.628 0 00-.401-.149.6.6 0 00-.21.038.556.556 0 00-.322.296l-.001.003a.63.63 0 00-.052.261v1.294a.621.621 0 00.052.265.527.527 0 00.137.181.55.55 0 00.186.114.609.609 0 00.612-.114l-.001.001a.555.555 0 00.184-.446v-1.294-.012a.626.626 0 00-.053-.253l.002.004a.586.586 0 00-.133-.189zm-.164 1.744l.001.02a.23.23 0 01-.071.167.257.257 0 01-.332 0 .23.23 0 01-.071-.167l.001-.021v.001-1.294l-.001-.02a.23.23 0 01.071-.167.257.257 0 01.332 0 .23.23 0 01.071.167l-.001.021v-.001 1.294zm2.915.578v-2.45h-.339l-.445 1.297h-.006l-.449-1.296h-.335v2.449h.35v-1.49h.006l.343 1.053h.175l.346-1.053h.006v1.49h.35zm1.988-2.278a.488.488 0 00-.198-.134.764.764 0 00-.24-.038h-.533v2.45h.349v-.957h.18a.638.638 0 00.315-.067.511.511 0 00.19-.185l.001-.002a.586.586 0 00.08-.213 1.7 1.7 0 00.019-.256v-.023.001a1.377 1.377 0 00-.034-.35.52.52 0 00-.129-.225zm-.18.747a.308.308 0 01-.033.129l.001-.002a.193.193 0 01-.089.085h-.001a.348.348 0 01-.147.031h-.019.001-.159v-.833h.197a.33.33 0 01.143.032l-.002-.001a.2.2 0 01.081.089v.001a.38.38 0 01.031.137v.163c0 .057.004.116 0 .168h-.004zm1.834-.919h-.286l-.54 2.45h.349l.102-.526h.476l.103.526h.349l-.553-2.45zm-.322 1.59l.172-.888h.006l.171.888h-.349zm2.577-.114h-.006l-.527-1.476h-.335v2.45h.349v-1.473h.007l.533 1.473h.329v-2.449h-.349v1.476zm2.132-1.476l-.281.974h-.007l-.281-.974h-.37l.479 1.414v1.035h.349v-1.035l.479-1.414h-.369zm-13.848 3.141h.168v.472h.114v-.472h.167v-.097h-.449v.097zm1.414-.096l-.22.569h.121l.047-.129h.227l.048.129h.124l-.226-.569h-.121zm-.018.343l.077-.211.077.211h-.155zm1.416.016h.132v.073a.214.214 0 01-.135.048h-.008a.145.145 0 01-.113-.054.24.24 0 01-.042-.136v-.013.001c0-.127.055-.19.164-.19l.012-.001a.12.12 0 01.116.09v.001l.112-.022c-.024-.111-.104-.167-.241-.167h-.008a.289.289 0 00-.191.073.276.276 0 00-.082.219v-.001.013c0 .076.028.146.074.201.05.052.12.084.198.084l.019-.001h-.001.01a.339.339 0 00.232-.091v-.224h-.246v.096zm1.427-.359h-.115v.569h.398v-.097h-.283v-.472zm1.207 0h-.115v.569h.115v-.569zm1.18.379l-.233-.38h-.111v.569h.107v-.372l.229.372h.114v-.569h-.106v.38zm1.067-.061h.283v-.097h-.283v-.124h.305v-.097h-.42v.569h.432v-.097h-.316v-.154zm2.587-.094h-.224v-.224h-.114v.569h.114v-.249h.224v.249h.114v-.569h-.114v.224zm1.073.094h.284v-.097h-.284v-.124h.306v-.097h-.42v.569h.431v-.097h-.316v-.154zm1.455 0c.099-.016.149-.068.149-.158l.001-.016a.136.136 0 00-.056-.11.312.312 0 00-.144-.034l-.023.001h.001-.241v.569h.114v-.238h.031c.022 0 .044.005.063.013h-.001c.017.01.031.025.041.042l.124.181h.137l-.069-.111a.406.406 0 00-.124-.136l-.001-.001zm-.115-.079h-.084v-.143h.09l.024-.001c.033 0 .064.005.094.015l-.002-.001a.077.077 0 01.025.056.075.075 0 01-.031.06.316.316 0 01-.095.014l-.022-.001h.001zm1.213.079h.283v-.097h-.283v-.124h.306v-.097h-.421v.569h.432v-.097h-.316v-.154z"/>
        </symbol>
        <symbol id="Client1" viewBox="0 0 60 32">
            <path d="M24.533 7.111l2.598 2.46h7.248v6.862l2.598 2.46V7.112H24.533z"/>
            <path d="M22.4 9.467v11.444h12.089v-4.549l-7.281-6.893-4.808-.003zm9.786 9.771h-7.873v-7.697h.556v7.176h7.317v.521zm-6.305 3.796l.291-.599h.243l-.424.799v.465h-.22v-.465l-.424-.798h.244l.291.599zm1.248.371h-.489l-.102.294h-.228l.477-1.264h.197l.478 1.264h-.229l-.103-.294zm-.428-.177h.366l-.183-.524-.183.524zm1.294.13c0-.058.016-.112.048-.16a.778.778 0 01.188-.175.795.795 0 01-.101-.153l-.002-.005a.32.32 0 01-.029-.126c0-.099.03-.177.09-.235s.141-.087.243-.087c.092 0 .167.027.226.082s.089.121.089.201v.002a.275.275 0 01-.041.145l.001-.001a.477.477 0 01-.13.131l-.002.001-.086.063.244.288a.504.504 0 00.053-.231h.183a.634.634 0 01-.11.383l.186.22H28.8l-.071-.084a.517.517 0 01-.31.102h-.014.001a.438.438 0 01-.3-.099.331.331 0 01-.112-.249v-.012.001zm.418.19a.321.321 0 00.199-.071l-.276-.326-.027.019c-.069.053-.104.113-.104.181 0 .058.019.106.057.142a.207.207 0 00.141.055h.011zm-.116-.814c0 .049.03.11.09.183l.096-.066.027-.022a.157.157 0 00.054-.118v-.005-.001a.11.11 0 00-.037-.083.13.13 0 00-.09-.036h-.01a.123.123 0 00-.093.042.154.154 0 00-.037.1v.006zm2.296.554c-.013.135-.063.24-.149.316s-.202.113-.346.113a.505.505 0 01-.267-.071.481.481 0 01-.176-.201l-.001-.003a.726.726 0 01-.065-.302v-.123c0-.119.021-.224.063-.315a.478.478 0 01.455-.284c.139 0 .252.038.337.114s.134.183.148.321h-.219c-.011-.091-.037-.156-.08-.196s-.105-.061-.187-.061c-.095 0-.169.035-.22.105s-.077.172-.078.306v.112c0 .137.025.241.073.313s.121.108.215.108c.086 0 .151-.02.195-.058s.071-.103.082-.193h.219zm1.206-.188c0 .124-.021.233-.064.326s-.105.165-.184.215a.503.503 0 01-.274.075.508.508 0 01-.274-.075.503.503 0 01-.185-.211l-.001-.003a.739.739 0 01-.066-.308v-.012.001-.071c0-.123.021-.232.065-.326s.106-.166.185-.216c.08-.05.171-.076.274-.076s.194.025.273.075c.08.049.141.121.185.213s.065.201.066.324v.07zm-.22-.066a.553.553 0 00-.08-.322.258.258 0 00-.213-.112h-.012.001-.009a.26.26 0 00-.213.111l-.001.001a.55.55 0 00-.082.315v.073c0 .139.027.246.081.322s.129.114.225.114c.097 0 .172-.037.224-.111s.079-.182.079-.325v-.066z"/>
        </symbol>
        <symbol id="smartphone" viewBox="0 0 20 32">
            <path d="M17 0H3C1.346 0 0 1.346 0 3v26c0 1.654 1.346 3 3 3h14c1.654 0 3-1.346 3-3V3c0-1.654-1.346-3-3-3zM3 2h14a1 1 0 011 1v21H2V3a1 1 0 011-1zm14 28H3a1 1 0 01-1-1v-3h16v3a1 1 0 01-1 1z"/>
            <path d="M4.707 27.478c.391.365.391.956 0 1.321s-1.024.365-1.414 0c-.391-.365-.391-.956 0-1.321s1.024-.365 1.414 0z"/>
        </symbol>
        <symbol id="envelope" viewBox="0 0 43 32">
            <path d="M38.667 0H4C1.794 0 0 1.794 0 4v24c0 2.206 1.794 4 4 4h34.667c2.206 0 4-1.794 4-4V4c0-2.206-1.794-4-4-4zm0 2.667c.181 0 .353.038.511.103L21.334 18.236 3.49 2.77a1.32 1.32 0 01.511-.103h34.667zm0 26.666H4A1.334 1.334 0 012.667 28V5.587L20.46 21.008a1.335 1.335 0 001.748 0L40.001 5.587V28c0 .736-.598 1.333-1.333 1.333z"/>
        </symbol>
        <symbol id="twitter" viewBox="0 0 32 32">
            <path d="M32 6.078c-1.1.493-2.376.857-3.713 1.028l-.068.007a6.556 6.556 0 002.873-3.579l.013-.046a12.88 12.88 0 01-4.076 1.573l-.084.014A6.558 6.558 0 0015.6 9.557v.004c0 .52.043 1.021.152 1.496-5.454-.266-10.28-2.88-13.522-6.861a6.524 6.524 0 00-.902 3.313v.001a6.57 6.57 0 002.914 5.451 6.453 6.453 0 01-2.994-.823l.033.017v.072a6.592 6.592 0 005.213 6.44l.043.008a6.403 6.403 0 01-1.662.215h-.061.003c-.419 0-.843-.024-1.242-.112.85 2.598 3.261 4.509 6.13 4.57a13.093 13.093 0 01-8.122 2.8H1.57h.001-.062c-.531 0-1.055-.034-1.569-.099l.061.006c2.826 1.846 6.287 2.944 10.004 2.944h.063-.003c12.072 0 18.672-10 18.672-18.669 0-.288-.01-.57-.024-.848a13.203 13.203 0 003.258-3.355l.03-.047z"/>
        </symbol>
        <symbol id="webstudio" viewBox="0 0 230 32">
            <path fill="var(--color1, #2196f3)" d="M13.187.947h5.325l3.37 9.776L25.293.947h5.283l-5.075 13.437 3.744 9.402L37.607.864h6.24L32.033 30.4h-4.95l-5.2-12.397L16.725 30.4h-4.95L.002.864h6.157l8.403 22.922 3.661-9.402L13.189.947zm41.576 29.869c-2.357 0-4.395-.512-6.115-1.539a11.014 11.014 0 01-3.924-4.022l-.028-.055a11.273 11.273 0 01-1.415-5.502v-.076.004c0-2.053.458-3.938 1.373-5.658a10.746 10.746 0 013.945-4.133l.049-.027c1.72-1.054 3.771-1.581 6.157-1.581 2.384 0 4.424.528 6.115 1.581a10.311 10.311 0 013.842 4.062l.027.056a11.226 11.226 0 011.373 5.414v.081-.004c0 .72-.042 1.344-.125 1.872H49.189c.139 1.691.763 3.024 1.872 3.994 1.136.971 2.44 1.456 3.91 1.456a6.452 6.452 0 003.12-.79c.998-.555 1.678-1.275 2.038-2.163l4.784 1.331c-.805 1.664-2.094 3.037-3.869 4.118-1.776 1.054-3.869 1.581-6.282 1.581zm-5.699-13.062h11.398c-.166-1.637-.79-2.954-1.872-3.952-1.054-1.026-2.344-1.539-3.869-1.539-1.498 0-2.787.512-3.869 1.539-1.054.998-1.65 2.315-1.789 3.952zm34.138 13.062c-1.664 0-3.147-.374-4.451-1.123a8.262 8.262 0 01-3.057-3.039l-.021-.04V30.4h-4.867V.032h5.574v12.397a8.805 8.805 0 012.998-3.057l.038-.022c1.277-.749 2.76-1.123 4.451-1.123 1.888 0 3.536.528 4.95 1.581 1.443 1.026 2.566 2.4 3.37 4.118.805 1.72 1.206 3.605 1.206 5.658 0 2.107-.443 4.008-1.331 5.699a10.578 10.578 0 01-3.62 4.01l-.041.025c-1.525.998-3.258 1.498-5.2 1.498zm-1.54-4.742c1.194 0 2.234-.291 3.12-.874a5.961 5.961 0 002.106-2.296l.016-.033c.528-.998.79-2.08.79-3.245 0-1.192-.25-2.288-.749-3.286a6.07 6.07 0 00-1.979-2.442l-.018-.012a4.934 4.934 0 00-2.877-.916l-.081.001h.004c-1.219 0-2.342.416-3.37 1.248a7.546 7.546 0 00-2.228 2.946l-.018.049v5.2c.362 1.082 1.069 1.968 2.122 2.662 1.056.666 2.109.998 3.162.998z"/>
            <path fill="var(--color5, #000)" d="M116.557 8.602c-.25-.277-.776-.638-1.581-1.082-.805-.472-1.776-.888-2.912-1.248a10.174 10.174 0 00-3.427-.582h-.027.001c-3.134 0-4.701 1.109-4.701 3.328 0 .805.25 1.442.749 1.914s1.248.874 2.246 1.206c.998.333 2.246.693 3.744 1.082 1.941.499 3.619 1.082 5.034 1.747 1.442.666 2.538 1.552 3.286 2.662.776 1.082 1.165 2.523 1.165 4.326 0 2.107-.512 3.813-1.539 5.117-.998 1.275-2.33 2.205-3.994 2.787s-3.467.874-5.408.874c-2.219 0-4.424-.333-6.614-.998-2.163-.693-4.091-1.637-5.782-2.829l2.538-4.95c.25.25.693.582 1.331.998a22 22 0 002.33 1.206c.915.389 1.914.72 2.995.998.986.264 2.118.416 3.286.416h.001c3.162 0 4.742-1.013 4.742-3.037 0-.859-.32-1.552-.957-2.08-.638-.528-1.539-.971-2.704-1.331-1.136-.36-2.469-.763-3.994-1.206-1.886-.528-3.453-1.109-4.701-1.747-1.221-.666-2.136-1.483-2.746-2.454-.61-.998-.915-2.261-.915-3.786 0-2.024.472-3.717 1.414-5.075.971-1.387 2.274-2.427 3.91-3.12 1.637-.72 3.453-1.082 5.45-1.082 2.053 0 3.966.333 5.741.998 1.776.666 3.301 1.429 4.576 2.288l-2.538 4.659zm21.198 20.675c-.749.333-1.68.666-2.787.998a11.14 11.14 0 01-3.336.499h-.036.002c-1.027 0-1.97-.181-2.829-.541a4.664 4.664 0 01-2.07-1.689l-.01-.016c-.499-.805-.749-1.845-.749-3.12V12.886h-2.87V8.601h2.87V1.529h5.574v7.072h4.576v4.285h-4.576v10.65c0 .749.192 1.29.582 1.622.416.333.915.499 1.498.499s1.15-.096 1.706-.291c.554-.194.998-.36 1.331-.499l1.123 4.41zm3.943-7.031V8.601h5.574v12.438c0 3.355 1.206 5.034 3.619 5.034 1.082 0 2.122-.32 3.12-.957 1.026-.666 1.858-1.664 2.496-2.995V8.601h5.574v15.558c0 .61.098 1.04.291 1.29.194.222.541.36 1.04.416v4.534c-.721.159-1.548.25-2.397.25h-.017.001c-.998 0-1.816-.222-2.454-.666-.61-.472-.971-1.109-1.082-1.914l-.125-1.747c-.971 1.498-2.219 2.621-3.744 3.37s-3.203 1.123-5.034 1.123c-2.246 0-3.952-.72-5.117-2.163-1.165-1.47-1.747-3.605-1.747-6.406zm25.84-2.745c0-2.08.416-3.979 1.248-5.699s1.984-3.078 3.453-4.077c1.47-.998 3.149-1.498 5.034-1.498 1.61 0 3.051.402 4.326 1.206 1.304.776 2.317 1.776 3.037 2.995V.031h5.574v24.128c0 .61.098 1.04.291 1.29.195.222.528.36.998.416v4.534c-.998.194-1.789.291-2.371.291-.998 0-1.83-.25-2.496-.749a2.751 2.751 0 01-1.081-1.945l-.001-.011-.083-1.373a8.142 8.142 0 01-3.242 3.099l-.044.021a8.903 8.903 0 01-4.281 1.082h-.004c-2.024 0-3.813-.499-5.366-1.498a10.918 10.918 0 01-3.632-4.017l-.028-.06c-.886-1.72-1.331-3.632-1.331-5.741zm17.097 2.912v-5.2a6.52 6.52 0 00-2.27-3.024l-.018-.013c-1.082-.805-2.19-1.206-3.328-1.206-1.136 0-2.134.32-2.995.957a6.075 6.075 0 00-1.981 2.416l-.015.038a7.4 7.4 0 00-.707 3.184v.065-.003c0 1.192.264 2.288.79 3.286a6.443 6.443 0 002.098 2.315l.023.015c.915.555 1.955.832 3.12.832 1.054 0 2.094-.347 3.12-1.04 1.054-.693 1.776-1.568 2.163-2.621zM196.93 5.565V.032h5.574v5.533h-5.574zm0 24.835V8.602h5.574V30.4h-5.574zm21.918.416c-2.386 0-4.437-.512-6.157-1.539a10.915 10.915 0 01-3.882-4.102l-.028-.058a11.533 11.533 0 01-1.373-5.495v-.083.004c0-2.024.458-3.896 1.373-5.616a10.92 10.92 0 013.904-4.091l.048-.027c1.72-1.054 3.758-1.581 6.115-1.581s4.382.528 6.074 1.581a10.515 10.515 0 013.925 4.063l.027.055a11.617 11.617 0 011.373 5.516v.105-.005c0 1.997-.458 3.856-1.373 5.574-.915 1.72-2.232 3.106-3.952 4.16-1.691 1.026-3.717 1.539-6.074 1.539zm-5.699-11.274c0 1.275.25 2.413.749 3.411a5.885 5.885 0 002.017 2.274l.022.014c.859.555 1.83.832 2.912.832a5.177 5.177 0 002.87-.832c.859-.582 1.539-1.36 2.038-2.33.526-.998.79-2.136.79-3.411 0-1.248-.264-2.357-.79-3.328-.499-.998-1.179-1.776-2.038-2.33a4.958 4.958 0 00-2.824-.874h-.048.002-.066a5.052 5.052 0 00-2.864.885l.017-.011c-.859.555-1.539 1.331-2.038 2.33-.499.971-.749 2.094-.749 3.37z"/>
        </symbol>
        <symbol id="instagram" viewBox="0 0 32 32">
            <path d="M31.968 9.408c-.074-1.701-.349-2.869-.744-3.882a7.84 7.84 0 00-1.847-2.837l-.001-.001A7.906 7.906 0 0026.598.861l-.054-.018C25.523.449 24.362.176 22.661.101 20.949.019 20.405 0 16.059 0c-4.344 0-4.888.019-6.595.094-1.701.074-2.869.349-3.88.742a7.847 7.847 0 00-2.839 1.85l-.001.001A7.9 7.9 0 00.919 5.465l-.018.054C.506 6.538.232 7.7.157 9.401c-.082 1.712-.101 2.256-.101 6.602 0 4.344.019 4.888.094 6.595.075 1.701.35 2.869.744 3.882a7.915 7.915 0 001.849 2.837l.001.001c.8.813 1.77 1.443 2.832 1.843 1.019.395 2.182.67 3.882.744 1.707.075 2.251.094 6.595.094 4.346 0 4.89-.019 6.595-.094 1.701-.074 2.869-.349 3.882-.742a8.237 8.237 0 004.664-4.628l.019-.055c.394-1.019.669-2.182.744-3.882.075-1.707.093-2.251.093-6.595s-.006-4.888-.08-6.595zm-2.88 13.066c-.07 1.563-.333 2.406-.552 2.97a5.336 5.336 0 01-3.001 3.024l-.036.013c-.563.219-1.413.482-2.97.55-1.688.075-2.194.094-6.464.094-4.269 0-4.782-.019-6.464-.094-1.563-.069-2.406-.331-2.97-.55a4.953 4.953 0 01-1.836-1.192l-.001-.001a4.978 4.978 0 01-1.184-1.803l-.011-.034c-.218-.563-.48-1.413-.549-2.97-.075-1.688-.094-2.195-.094-6.464 0-4.27.019-4.784.094-6.464.069-1.563.331-2.406.549-2.97a4.897 4.897 0 011.198-1.837l.002-.002a4.972 4.972 0 011.806-1.182l.034-.011c.56-.219 1.411-.48 2.968-.55 1.688-.074 2.194-.093 6.464-.093 4.275 0 4.782.019 6.464.093 1.562.069 2.406.331 2.97.55a4.91 4.91 0 011.837 1.194c.531.52.938 1.144 1.195 1.84.218.56.48 1.411.549 2.968.075 1.688.094 2.194.094 6.464 0 4.269-.019 4.768-.094 6.458z"/>
            <path d="M16.059 7.782a8.223 8.223 0 00-8.219 8.221v.002a8.222 8.222 0 1016.444 0 8.222 8.222 0 00-8.222-8.222h-.002zm0 13.552a5.333 5.333 0 01.001-10.666h.001a5.334 5.334 0 110 10.668zM26.525 7.458a1.92 1.92 0 01-3.84 0 1.92 1.92 0 013.84 0z"/>
        </symbol>
        <symbol id="linkedin" viewBox="0 0 32 32">
            <path d="M31.992 32H32V20.262c0-5.741-1.237-10.163-7.947-10.163-3.227 0-5.392 1.77-6.277 3.45h-.093v-2.914h-6.365v21.363h6.627V21.42c0-2.786.528-5.48 3.978-5.48 3.398 0 3.448 3.179 3.448 5.658V32h6.621zM.528 10.635h6.635V32H.528V10.635zM3.843 0A3.843 3.843 0 000 3.843c0 2.12 1.722 3.878 3.843 3.878 2.12 0 3.842-1.757 3.842-3.878S5.965.002 3.844 0z"/>
        </symbol>
        <symbol id="antenna" viewBox="0 0 32 32">
            <path fill="var(--color6, #212121)" d="M30.773 22.098l-8.443-8.505.937-4.616c.225.09.485.144.758.146h.033a2.16 2.16 0 10-2.029-1.42l-.005-.015-4.96.606L8.973.161a.53.53 0 00-.376-.16.536.536 0 00-.373.155L6.712 1.66a.535.535 0 000 .754l.814.825C6.383 5.301 5.71 7.761 5.71 10.378c0 4.106 1.656 7.824 4.336 10.525l-.001-.001a.49.49 0 00.146.097 2.986 2.986 0 00-.052.546v6.188h-6.4a2.669 2.669 0 00-2.667 2.666v1.067c0 .295.239.534.534.534H26.14a.534.534 0 00.533-.534v-1.067a2.67 2.67 0 00-2.666-2.666h-6.4v-2.742a14.64 14.64 0 003.047.32h.002a14.784 14.784 0 007.117-1.822l-.077.039.818.823a.534.534 0 00.376.16.536.536 0 00.373-.155l1.512-1.504a.535.535 0 000-.754zM23.28 6.233a1.067 1.067 0 11.752 1.822h-.004a1.066 1.066 0 01-.747-1.822h-.002zm-1.256 3.504l-.598 2.946-1.175-1.183 1.774-1.763zm-.605-.902l-1.92 1.909-1.486-1.493 3.406-.416zM24.004 28.8a1.6 1.6 0 011.6 1.6v.534H2.138V30.4a1.6 1.6 0 011.6-1.6h20.267zm-7.466-2.134v1.067h-5.334v-1.067h5.334zM11.204 25.6v-4.053c0-1.294 1.196-2.346 2.667-2.346s2.667 1.053 2.667 2.346V25.6h-5.334zm6.4-1.696v-2.357c0-1.882-1.675-3.413-3.733-3.413h-.058c-1.353 0-2.54.707-3.213 1.771l-.009.016a13.817 13.817 0 01-3.812-9.55c0-2.314.567-4.496 1.569-6.414l-.036.077 18.602 18.709c-1.823.947-3.979 1.502-6.266 1.502-1.079 0-2.128-.124-3.136-.357l.093.018zm11.289-.684L7.836 2.039l.754-.752 7.935 7.98c.004 0 .006.007.009.01l13.115 13.191-.757.752z"/>
            <path fill="var(--color1, #2196f3)" d="M13.876 20.267h-.007a1.6 1.6 0 00-.003 3.2h.007a1.6 1.6 0 00.002-3.2zm.373 1.978a.534.534 0 11-.378-.912.533.533 0 01.373.911h.005z"/>
        </symbol>
        <symbol id="astronaut" viewBox="0 0 32 32">
            <path fill="var(--color1, #2196f3)" d="M31.974 4.524a.535.535 0 00-.427-.362h-.003l-1.911-.278-.855-1.731c-.179-.365-.777-.365-.956 0l-.855 1.731-1.911.278a.534.534 0 00-.296.91l1.383 1.348-.326 1.903a.532.532 0 00.774.562l1.709-.899 1.709.899a.534.534 0 00.773-.565v.003l-.326-1.903 1.383-1.348a.535.535 0 00.134-.55l.001.004zm-2.463 1.327a.53.53 0 00-.153.472l.191 1.114-1-.526a.525.525 0 00-.501.001l.003-.001-1 .526.191-1.114a.53.53 0 00-.152-.472l-.811-.789 1.119-.163a.532.532 0 00.402-.292l.5-1.013.5 1.013a.532.532 0 00.402.292l1.119.162-.809.79zm-3.377 14.671h-1.067v1.067h1.067v-1.067zm0 2.134h-1.067v1.066h1.067v-1.066zm1.066-1.067h-1.067v1.067H27.2v-1.067zm-2.133 0H24v1.067h1.067v-1.067zm-2.667 4.8h-1.067v1.067H22.4v-1.067zm0 2.134h-1.067v1.067H22.4v-1.067zm1.067-1.067H22.4v1.067h1.067v-1.067zm-2.133 0h-1.067v1.067h1.067v-1.067zM16 24.256h-1.066v1.067H16v-1.067zm0 2.133h-1.066v1.067H16v-1.067zm1.067-1.067H16v1.067h1.067v-1.067zm-2.133 0h-1.067v1.067h1.067v-1.067zm-9.067-19.2H4.801v1.066h1.066V6.122zm0 2.134H4.801v1.066h1.066V8.256zm1.066-1.067H5.866v1.067h1.066V7.189zm-2.133 0H3.733v1.067H4.8V7.189z"/>
            <path fill="var(--color6, #212121)" d="M24.715 14.16a1.774 1.774 0 00-1.179-.703l-.009-.001a1.769 1.769 0 00-1.344.355l.004-.003-1.253.96-1.898 1.417-1.358-.541c2.421-1.086 4.113-3.508 4.113-6.32 0-3.823-3.122-6.934-6.961-6.934S7.869 5.5 7.869 9.324c0 1.386.415 2.674 1.12 3.759l-2.768-.024c-.009 0-.016.005-.023.005a.511.511 0 00-.159.033l.004-.001c-.013.005-.026.007-.038.013-.006.003-.013.003-.019.006l-3.233 1.596-.001.001-1.893.91a.429.429 0 00-.064.036l.001-.001a1.782 1.782 0 00-.594 2.306l-.005-.01c.22.424.592.742 1.043.885l.013.003a1.772 1.772 0 001.388-.133l-.009.005 1.388-.738 2.264-1.169 1.357-.008-5.442 5.415-.001.001-1.339 1.333a1.643 1.643 0 00-.491 1.173v.005a1.668 1.668 0 001.667 1.664h.002a1.67 1.67 0 001.18-.485l1.314-1.309 1.741-1.3.901.897-3.102 3.088a1.645 1.645 0 00-.491 1.174v.004a1.662 1.662 0 001.666 1.664h.003a1.67 1.67 0 001.18-.485l4.488-4.472c.007-.006.016-.009.022-.016l5.166-5.658 3.471.494a.474.474 0 00.262-.032c.017-.006.032-.015.049-.023.019-.01.039-.015.058-.027l3.213-2.133c.012-.008.018-.021.029-.03.013-.01.029-.014.041-.026l1.271-1.191c.348-.326.564-.787.564-1.3 0-.4-.132-.769-.355-1.066l.003.005zM2.13 17.77a.706.706 0 01-.564.05l.005.001a.717.717 0 01-.214-1.258l.002-.001 1.314-.632.316.924.133.389-.992.527zm3.497-1.828l-1.548.8-.255-.746-.184-.537 2.027-1.001-.04 1.484zm15.1-6.62c0 .918-.219 1.785-.599 2.56l-4.181-1.899a1.865 1.865 0 00-.782-1.384l-.006-.004 1.464-4.86c2.377.756 4.104 2.974 4.104 5.588zm-11.789 0c0-3.235 2.644-5.867 5.894-5.867.253 0 .5.022.745.053l-1.432 4.753c-.019 0-.037-.006-.057-.006h-.001a1.872 1.872 0 00-1.872 1.867 1.873 1.873 0 001.872 1.867h.001c.695 0 1.295-.383 1.618-.944l3.863 1.755a5.893 5.893 0 01-4.737 2.389c-3.25 0-5.894-2.632-5.894-5.867zm5.957.8c0 .441-.362.8-.806.8h-.001a.804.804 0 01-.804-.8c0-.441.361-.8.806-.8s.806.359.806.8zM2.464 25.146a.606.606 0 01-.855.001.591.591 0 010-.844l.962-.959.852.848-.959.955zm3.214 3.734a.606.606 0 01-.855.001.591.591 0 010-.844l.963-.959.852.848-.96.955zm3.482-3.469l-.001.001-1.765 1.76-.852-.848 1.765-1.757a.527.527 0 00.09-.136c.007-.014.02-.026.026-.04.016-.041.019-.085.026-.128.003-.025.014-.048.014-.073 0-.035-.013-.07-.02-.105-.006-.032-.006-.064-.019-.096a.536.536 0 00-.092-.138c-.01-.012-.014-.027-.025-.038h-.001l-.001-.002-1.607-1.6c-.017-.017-.039-.024-.058-.038a.563.563 0 00-.084-.057l-.003-.001a.453.453 0 00-.09-.031l-.003-.001a.502.502 0 00-.101-.02h-.002l-.023-.001a.603.603 0 00-.075.005h.003c-.036.005-.069.009-.104.021a.502.502 0 00-.096.046l.002-.001c-.02.011-.043.015-.061.029l-1.774 1.324-.901-.897 2.399-2.386 4.36 4.289-.928.919zm6.819-7.017c-.016-.002-.03.004-.046.003l-.027-.001a.562.562 0 00-.092.008h.003a.484.484 0 00-.187.07l.002-.001a.528.528 0 00-.083.062c-.013.011-.028.016-.04.029l-4.698 5.146-4.328-4.256 2.833-2.818a.535.535 0 00-.378-.911h-.002l-2.219.013.028-1.607 3.104.027a6.928 6.928 0 004.978 2.101h.003c.438 0 .864-.046 1.28-.122.04.032.08.064.129.085l2.41.96.152.759.178.885-3.003-.427zm4.041.178l-.313-1.558 1.446-1.08.946 1.257-2.08 1.381zm3.753-2.831l-.837.785-.931-1.237.831-.637a.735.735 0 01.543-.143.718.718 0 01.621.71.71.71 0 01-.226.521z"/>
            <path fill="var(--color6, #212121)" d="M13.602 18.544l-2.143-2.134a.53.53 0 00-.752 0l-2.143 2.133a.535.535 0 000 .756l2.142 2.134a.53.53 0 00.752 0l2.143-2.134a.532.532 0 000-.756zm-2.519 1.759l-1.387-1.381 1.386-1.381 1.387 1.381-1.387 1.381zm6.081-15.232l-.258 1.036c.071.018 1.738.452 1.738 2.149h1.067c0-2.017-1.666-2.965-2.547-3.184zm2.547 4.251h-1.067v1.066h1.067V9.322z"/>
        </symbol>
        <symbol id="clock" viewBox="0 0 32 32">
            <path fill="var(--color6, #212121)" d="M31.296 15.301C31.295 6.849 24.441-.002 15.988 0S.685 6.855.687 15.308c.002 6.788 4.422 12.543 10.54 14.545l.108.031a.667.667 0 00.529-.065.636.636 0 00.283-.357l3.865-12.25a1.913 1.913 0 10-.852-3.63l.011-.005-5.106-5.107a.638.638 0 00-.902.902l5.103 5.109a1.873 1.873 0 00.533 2.306l.004.003-3.683 11.673C3.842 25.782.116 17.709 2.796 10.431S13.55-.573 20.828 2.108c7.278 2.681 11.004 10.754 8.323 18.032-1.345 3.581-4.003 6.406-7.374 7.938l-.088.036-.398-1.874a.639.639 0 00-1.049-.343l.001-.001-3.837 3.426a.637.637 0 00.227 1.083l.005.001 4.899 1.563a.637.637 0 00.818-.744l.001.004-.391-1.839c5.528-2.374 9.329-7.772 9.329-14.057v-.034.002zm-15.304-.637a.638.638 0 010 1.276.638.638 0 010-1.276zm2.1 14.864l2.184-1.948.603 2.84-2.787-.892z"/>
            <path fill="var(--color1, #2196f3)" d="M15.354 3.185V4.46a.638.638 0 001.276 0V3.185a.638.638 0 10-1.276 0zM3.876 14.664a.638.638 0 000 1.276h1.275a.638.638 0 000-1.276H3.876zm24.232 1.275a.638.638 0 000-1.276h-1.275a.638.638 0 000 1.276h1.275z"/>
        </symbol>
        <symbol id="diagram" viewBox="0 0 32 32">
            <path fill="var(--color1, #2196f3)" d="M14.926 14.965h1.066v4.798h-1.066v-4.798zm4.264 2.132h1.066v2.665H19.19v-2.665zm-8.529 1.599h1.066v1.066h-1.066v-1.066zm-3.198-.533h1.066v1.599H7.463v-1.599z"/>
            <path fill="var(--color6, #212121)" d="M1.599 28.291h25.586a1.6 1.6 0 001.599-1.599V24.56a1.6 1.6 0 00-1.599-1.599h-.533V9.667l3.028-2.868a1.608 1.608 0 10-.742-.752l-.004-.01-2.281 2.162v-1.23a1.6 1.6 0 00-1.599-1.599H3.731a1.6 1.6 0 00-1.599 1.599v15.992h-.533A1.6 1.6 0 000 24.56v2.132a1.6 1.6 0 001.599 1.599zM30.384 4.837a.533.533 0 010 1.066.533.533 0 010-1.066zM3.198 6.969c0-.294.239-.533.533-.533h21.323c.294 0 .533.239.533.533v2.239l-1.066 1.013V8.036a.534.534 0 00-.534-.534H4.798a.534.534 0 00-.534.533v13.327c0 .294.239.533.534.533h19.189a.534.534 0 00.534-.533v-9.675l1.066-1.01V22.96H3.198V6.969zm4.798 6.93h-.005a1.6 1.6 0 101.112 2.748l1.853.93a.535.535 0 00.636-.122l3.939-4.432 3.872 2.902a.534.534 0 00.686-.039l3.365-3.188v8.131H5.331V8.568h18.123v2.661l-3.771 3.572-3.904-2.927a.534.534 0 00-.718.071v.001l-3.993 4.493-1.493-.746c.011-.064.017-.128.02-.193a1.6 1.6 0 00-1.599-1.599zm.533 1.599a.533.533 0 01-1.066 0 .533.533 0 011.066 0zm3.198 8.528h5.33v.533a.533.533 0 01-.533.533h-4.265a.533.533 0 01-.533-.533v-.533zm-10.66.534c0-.294.238-.533.533-.533h9.062v.533a1.6 1.6 0 001.599 1.599h4.265a1.6 1.6 0 001.599-1.599v-.533h9.062c.294 0 .533.239.533.533v2.132a.533.533 0 01-.533.533H1.601a.533.533 0 01-.533-.533V24.56z"/>
        </symbol>
        <symbol id="facebook" viewBox="0 0 32 32">
            <path d="M21.328 5.312h2.923V.224A36.483 36.483 0 0020.143 0h-.156.008c-4.213 0-7.099 2.65-7.099 7.52V12H8.25v5.688h4.646V32h5.699V17.69h4.459l.707-5.688h-5.168V8.08c0-1.643.443-2.768 2.734-2.768z"/>
        </symbol>
        <symbol id="close" viewBox="0 0 32 32">
            <path fill="var(--color1, #fff)" d="M32 16c0 8.837-7.163 16-16 16S0 24.837 0 16 7.163 0 16 0s16 7.163 16 16z"/>
            <path fill="none" stroke="var(--color2, rgba(0, 0, 0, 0.1)" stroke-width="1.067" d="M31.467 16c0 8.542-6.925 15.467-15.467 15.467S.533 24.542.533 16C.533 7.458 7.458.533 16 .533S31.467 7.458 31.467 16z"/>
            <path d="M22.4 10.782L21.218 9.6l-4.685 4.685L11.848 9.6l-1.182 1.182 4.685 4.685-4.685 4.685 1.182 1.182 4.685-4.685 4.685 4.685 1.182-1.182-4.685-4.685 4.685-4.685z"/>
        </symbol>
        <symbol id="send" viewBox="0 0 32 32">
            <path fill="var(--color1, #fff)" d="M32 0L0 18l10.227 3.787L26 7 14.003 23.187l.009.003-.012-.003V32l5.735-6.691L27.002 28l4.999-28z"/>
        </symbol>
        <symbol id="email-black" viewBox="0 0 32 32">
            <path d="M26.667 5.333H5.334A2.662 2.662 0 002.682 8l-.014 16c0 1.467 1.2 2.667 2.667 2.667h21.333c1.467 0 2.667-1.2 2.667-2.667V8c0-1.467-1.2-2.667-2.667-2.667zm-.534 5.668l-9.426 5.892a1.343 1.343 0 01-1.421-.004l.006.003L5.866 11A1.133 1.133 0 117.07 9.083l-.004-.003 8.933 5.586 8.933-5.588a1.132 1.132 0 111.204 1.916l-.005.003z"/>
        </symbol>
        <symbol id="person-black" viewBox="0 0 32 32">
            <path d="M16 16a5.333 5.333 0 100-10.666A5.333 5.333 0 1016 16zm0 2.667c-3.561 0-10.667 1.787-10.667 5.333v1.333c0 .732.599 1.333 1.333 1.333h18.667c.732 0 1.333-.601 1.333-1.333V24c0-3.547-7.108-5.333-10.667-5.333z"/>
        </symbol>
        <symbol id="phone-black" viewBox="0 0 32 32">
            <path d="M24.882 19.774l-3.268-.373a2.552 2.552 0 00-2.11.732l-2.368 2.368c-3.669-1.894-6.585-4.81-8.427-8.372l-.051-.108 2.382-2.377a2.552 2.552 0 00.731-2.122l.001.012-.373-3.243a2.578 2.578 0 00-2.557-2.276H6.613c-1.454 0-2.663 1.209-2.574 2.661.683 10.987 9.47 19.762 20.444 20.444 1.452.089 2.663-1.12 2.663-2.574V22.32v-.012a2.549 2.549 0 00-2.253-2.532l-.012-.001z"/>
        </symbol>
        <symbol id="icon-check" viewBox="0 0 34 32">
            <path d="M4.267 0h25.6a4.267 4.267 0 014.267 4.267v23.467a4.267 4.267 0 01-4.267 4.267h-25.6A4.267 4.267 0 010 27.734V4.267A4.267 4.267 0 014.267 0z"/>
            <path fill="var(--color2, #fff)" stroke="var(--color2, #fff)" stroke-width=".427" d="M8.442 16.538l-.147-.141-.147.139-2.057 1.95.162.156 7.605 7.253.147-.141 16.171-15.426-.162-.154-2.029-1.935-.147.141-13.98 13.325-5.417-5.167z"/>
        </symbol>
    </defs>
</svg>